<svg width="20" height="20" viewBox="0 0 20 20" fill="none" xmlns="http://www.w3.org/2000/svg">
  <mask id="mask0_33_5206" style="mask-type:alpha" maskUnits="userSpaceOnUse" x="0" y="0" width="20"
    height="20">
    <rect width="20" height="20" fill="#D9D9D9" />
  </mask>
  <g mask="url(#mask0_33_5206)">
    <path
      d="M12.0627 9.99999L5.93767 3.87499C5.72934 3.66666 5.62865 3.42013 5.63559 3.13541C5.64253 2.85069 5.75017 2.60416 5.95851 2.39583C6.16684 2.18749 6.41337 2.08333 6.69809 2.08333C6.98281 2.08333 7.22934 2.18749 7.43767 2.39583L13.8335 8.81249C14.0002 8.97916 14.1252 9.16666 14.2085 9.37499C14.2918 9.58333 14.3335 9.79166 14.3335 9.99999C14.3335 10.2083 14.2918 10.4167 14.2085 10.625C14.1252 10.8333 14.0002 11.0208 13.8335 11.1875L7.41684 17.6042C7.20851 17.8125 6.96545 17.9132 6.68767 17.9062C6.4099 17.8993 6.16684 17.7917 5.95851 17.5833C5.75017 17.375 5.64601 17.1285 5.64601 16.8437C5.64601 16.559 5.75017 16.3125 5.95851 16.1042L12.0627 9.99999Z"
      fill="#308EE5" />
  </g>
</svg>
  