<svg width="24" height="24" viewBox="0 0 24 24" fill="none" xmlns="http://www.w3.org/2000/svg">
  <rect width="24" height="24" rx="12" fill="#308EE5" />
  <mask id="mask0_26_4355" style="mask-type:alpha" maskUnits="userSpaceOnUse" x="6" y="6" width="12"
    height="12">
    <rect x="6.25" y="6.25" width="11.5" height="11.5" fill="#D9D9D9" stroke="white"
      stroke-width="0.5" />
  </mask>
  <g mask="url(#mask0_26_4355)">
    <path
      d="M10.5975 13.7512L10.7742 13.9292L10.9516 13.7518L15.1891 9.51428C15.2454 9.458 15.2997 9.4375 15.3624 9.4375C15.4251 9.4375 15.4793 9.458 15.5356 9.51428C15.5902 9.56889 15.6124 9.62464 15.6124 9.69375C15.6124 9.76286 15.5902 9.81861 15.5356 9.87322L15.5353 9.87346L10.9481 14.4732C10.9481 14.4732 10.948 14.4733 10.948 14.4733C10.8918 14.5295 10.8375 14.55 10.7749 14.55C10.7122 14.55 10.6579 14.5295 10.6016 14.4732L8.45164 12.3232C8.39883 12.2704 8.37898 12.2178 8.38099 12.1513C8.38317 12.0794 8.40777 12.0206 8.46414 11.9643C8.51875 11.9097 8.5745 11.8875 8.64361 11.8875C8.71261 11.8875 8.76829 11.9096 8.82282 11.964C8.82291 11.9641 8.823 11.9642 8.82308 11.9643L10.5975 13.7512Z"
      fill="#1C1B1F" stroke="white" stroke-width="0.5" />
  </g>
</svg>
  