<svg width="16" height="16" viewBox="0 0 16 16" fill="none" xmlns="http://www.w3.org/2000/svg">
  <mask id="mask0_151_2197" style="mask-type:alpha" maskUnits="userSpaceOnUse" x="0" y="0"
    width="16" height="16">
    <rect x="1" y="1" width="14" height="14" fill="#D9D9D9" stroke="white" stroke-width="2" />
  </mask>
  <g mask="url(#mask0_151_2197)">
    <mask id="path-2-inside-1_151_2197" fill="white">
      <path
        d="M6.36615 10.1L12.0162 4.45C12.1495 4.31667 12.305 4.25 12.4828 4.25C12.6606 4.25 12.8162 4.31667 12.9495 4.45C13.0828 4.58333 13.1495 4.74167 13.1495 4.925C13.1495 5.10833 13.0828 5.26667 12.9495 5.4L6.83282 11.5333C6.69949 11.6667 6.54393 11.7333 6.36615 11.7333C6.18838 11.7333 6.03282 11.6667 5.89949 11.5333L3.03282 8.66667C2.89949 8.53333 2.8356 8.375 2.84115 8.19167C2.84671 8.00833 2.91615 7.85 3.04949 7.71667C3.18282 7.58333 3.34115 7.51667 3.52449 7.51667C3.70782 7.51667 3.86615 7.58333 3.99949 7.71667L6.36615 10.1Z" />
    </mask>
    <path
      d="M6.36615 10.1L12.0162 4.45C12.1495 4.31667 12.305 4.25 12.4828 4.25C12.6606 4.25 12.8162 4.31667 12.9495 4.45C13.0828 4.58333 13.1495 4.74167 13.1495 4.925C13.1495 5.10833 13.0828 5.26667 12.9495 5.4L6.83282 11.5333C6.69949 11.6667 6.54393 11.7333 6.36615 11.7333C6.18838 11.7333 6.03282 11.6667 5.89949 11.5333L3.03282 8.66667C2.89949 8.53333 2.8356 8.375 2.84115 8.19167C2.84671 8.00833 2.91615 7.85 3.04949 7.71667C3.18282 7.58333 3.34115 7.51667 3.52449 7.51667C3.70782 7.51667 3.86615 7.58333 3.99949 7.71667L6.36615 10.1Z"
      fill="#1C1B1F" />
    <path
      d="M6.36615 10.1L4.94699 11.5092L6.36118 12.9334L7.78037 11.5142L6.36615 10.1ZM12.0162 4.45L10.6019 3.03579L12.0162 4.45ZM12.9495 5.4L11.5353 3.98579L11.5334 3.98771L12.9495 5.4ZM6.83282 11.5333L8.24704 12.9475L8.24896 12.9456L6.83282 11.5333ZM5.89949 11.5333L7.3137 10.1191L5.89949 11.5333ZM3.03282 8.66667L1.61861 10.0809L3.03282 8.66667ZM3.99949 7.71667L5.41866 6.30742L5.4137 6.30245L3.99949 7.71667ZM7.78037 11.5142L13.4304 5.86421L10.6019 3.03579L4.95194 8.68579L7.78037 11.5142ZM13.4304 5.86421C13.3376 5.95695 13.202 6.06057 13.0207 6.13829C12.837 6.217 12.6509 6.25 12.4828 6.25V2.25C11.7399 2.25 11.0851 2.55263 10.6019 3.03579L13.4304 5.86421ZM12.4828 6.25C12.3148 6.25 12.1286 6.217 11.945 6.13829C11.7636 6.06057 11.628 5.95695 11.5353 5.86421L14.3637 3.03579C13.8805 2.55263 13.2257 2.25 12.4828 2.25V6.25ZM11.5353 5.86421C11.4369 5.76585 11.3327 5.62644 11.2562 5.44486C11.1793 5.26217 11.1495 5.08176 11.1495 4.925H15.1495C15.1495 4.19455 14.8601 3.53223 14.3637 3.03579L11.5353 5.86421ZM11.1495 4.925C11.1495 4.76824 11.1793 4.58783 11.2562 4.40514C11.3327 4.22356 11.4369 4.08415 11.5353 3.98579L14.3637 6.81421C14.8601 6.31777 15.1495 5.65545 15.1495 4.925H11.1495ZM11.5334 3.98771L5.41668 10.121L8.24896 12.9456L14.3656 6.81229L11.5334 3.98771ZM5.41861 10.1191C5.51135 10.0264 5.64697 9.92276 5.82832 9.84504C6.01197 9.76633 6.19811 9.73333 6.36615 9.73333V13.7333C7.10904 13.7333 7.76388 13.4307 8.24703 12.9475L5.41861 10.1191ZM6.36615 9.73333C6.5342 9.73333 6.72034 9.76633 6.90399 9.84504C7.08534 9.92276 7.22096 10.0264 7.3137 10.1191L4.48527 12.9475C4.96843 13.4307 5.62327 13.7333 6.36615 13.7333V9.73333ZM7.3137 10.1191L4.44703 7.25245L1.61861 10.0809L4.48527 12.9475L7.3137 10.1191ZM4.44703 7.25245C4.55053 7.35594 4.66092 7.50454 4.7396 7.69953C4.81879 7.89577 4.84521 8.088 4.84024 8.25224L0.842071 8.13109C0.81929 8.88286 1.10769 9.56996 1.61861 10.0809L4.44703 7.25245ZM4.84024 8.25224C4.83573 8.40082 4.8033 8.5693 4.72898 8.73874C4.65508 8.90722 4.55694 9.03764 4.4637 9.13088L1.63527 6.30245C1.15289 6.78483 0.863532 7.4229 0.842071 8.13109L4.84024 8.25224ZM4.4637 9.13088C4.36534 9.22924 4.22593 9.33348 4.04435 9.40994C3.86166 9.48686 3.68125 9.51667 3.52449 9.51667V5.51667C2.79403 5.51667 2.13171 5.80602 1.63527 6.30245L4.4637 9.13088ZM3.52449 9.51667C3.36773 9.51667 3.18731 9.48686 3.00462 9.40994C2.82305 9.33348 2.68363 9.22924 2.58527 9.13088L5.4137 6.30245C4.91726 5.80602 4.25494 5.51667 3.52449 5.51667V9.51667ZM2.58032 9.12591L4.94699 11.5092L7.78532 8.69076L5.41865 6.30742L2.58032 9.12591Z"
      fill="white" mask="url(#path-2-inside-1_151_2197)" />
  </g>
</svg>
  