<svg width="48" height="48" viewBox="0 0 48 48" fill="none" xmlns="http://www.w3.org/2000/svg">
  <rect width="48" height="48" rx="24" fill="#34C759" />
  <mask id="mask0_26_4332" style="mask-type:alpha" maskUnits="userSpaceOnUse" x="12" y="12"
    width="24" height="24">
    <rect x="12.5" y="12.5" width="23" height="23" fill="#D9D9D9" stroke="white" />
  </mask>
  <g mask="url(#mask0_26_4332)">
    <path
      d="M21.1954 27.5023L21.549 27.8583L21.9038 27.5036L30.3788 19.0286C30.4913 18.916 30.5998 18.875 30.7252 18.875C30.8506 18.875 30.9591 18.916 31.0717 19.0286C31.1809 19.1378 31.2252 19.2493 31.2252 19.3875C31.2252 19.5257 31.1809 19.6372 31.0717 19.7464L31.0712 19.7469L21.8967 28.9464C21.8966 28.9465 21.8966 28.9465 21.8965 28.9466C21.784 29.059 21.6756 29.1 21.5502 29.1C21.4248 29.1 21.3163 29.059 21.2038 28.9464L16.9038 24.6464L16.5502 25L16.9038 24.6464C16.7982 24.5408 16.7585 24.4355 16.7625 24.3026C16.7668 24.1589 16.816 24.0413 16.9288 23.9286C17.038 23.8193 17.1495 23.775 17.2877 23.775C17.4257 23.775 17.5371 23.8192 17.6461 23.928C17.6463 23.9282 17.6465 23.9284 17.6467 23.9286L21.1954 27.5023Z"
      fill="#1C1B1F" stroke="white" />
  </g>
</svg>
  