<svg width="32" height="33" viewBox="0 0 32 33" fill="none" xmlns="http://www.w3.org/2000/svg">
  <ellipse cx="16" cy="16.25" rx="16" ry="16.25" fill="black" />
  <rect x="8.25" y="8.75" width="15.5" height="15.5" stroke="black" stroke-width="0.5" />
  <path
    d="M20.2001 12.3067C20.1385 12.2449 20.0652 12.1959 19.9846 12.1624C19.9039 12.129 19.8175 12.1117 19.7301 12.1117C19.6428 12.1117 19.5564 12.129 19.4757 12.1624C19.3951 12.1959 19.3218 12.2449 19.2601 12.3067L16.0001 15.56L12.7401 12.3C12.6784 12.2383 12.6052 12.1893 12.5245 12.1559C12.4439 12.1225 12.3574 12.1053 12.2701 12.1053C12.1829 12.1053 12.0964 12.1225 12.0158 12.1559C11.9351 12.1893 11.8619 12.2383 11.8001 12.3C11.7384 12.3617 11.6895 12.435 11.6561 12.5157C11.6227 12.5963 11.6055 12.6827 11.6055 12.77C11.6055 12.8573 11.6227 12.9437 11.6561 13.0244C11.6895 13.105 11.7384 13.1783 11.8001 13.24L15.0601 16.5L11.8001 19.76C11.7384 19.8217 11.6895 19.895 11.6561 19.9757C11.6227 20.0563 11.6055 20.1427 11.6055 20.23C11.6055 20.3173 11.6227 20.4037 11.6561 20.4844C11.6895 20.565 11.7384 20.6383 11.8001 20.7C11.8619 20.7617 11.9351 20.8107 12.0158 20.8441C12.0964 20.8775 12.1829 20.8947 12.2701 20.8947C12.3574 20.8947 12.4439 20.8775 12.5245 20.8441C12.6052 20.8107 12.6784 20.7617 12.7401 20.7L16.0001 17.44L19.2601 20.7C19.3219 20.7617 19.3951 20.8107 19.4758 20.8441C19.5564 20.8775 19.6429 20.8947 19.7301 20.8947C19.8174 20.8947 19.9039 20.8775 19.9845 20.8441C20.0652 20.8107 20.1384 20.7617 20.2001 20.7C20.2619 20.6383 20.3108 20.565 20.3442 20.4844C20.3776 20.4037 20.3948 20.3173 20.3948 20.23C20.3948 20.1427 20.3776 20.0563 20.3442 19.9757C20.3108 19.895 20.2619 19.8217 20.2001 19.76L16.9401 16.5L20.2001 13.24C20.4535 12.9867 20.4535 12.56 20.2001 12.3067Z"
    fill="white" />
</svg>
  