<svg width="86" height="86" viewBox="0 0 86 86" fill="none" xmlns="http://www.w3.org/2000/svg">
  <rect width="86" height="86" rx="43" fill="#308EE5" />
  <mask id="mask0_31_5086" style="mask-type:alpha" maskUnits="userSpaceOnUse" x="19" y="19"
    width="48" height="48">
    <rect x="19" y="19" width="48" height="48" fill="#D9D9D9" />
  </mask>
  <g mask="url(#mask0_31_5086)">
    <path
      d="M35.55 43L39 39.55C39.3 39.25 39.45 38.8833 39.45 38.45C39.45 38.0167 39.3 37.65 39 37.35C38.7 37.05 38.3333 36.9 37.9 36.9C37.4667 36.9 37.1 37.05 36.8 37.35L32.8 41.3C32.5697 41.539 32.3872 41.8088 32.2525 42.1095C32.1175 42.4105 32.05 42.7092 32.05 43.0055C32.05 43.3018 32.1175 43.5992 32.2525 43.8975C32.3872 44.1958 32.5697 44.4633 32.8 44.7L36.9 48.8C37.2 49.1 37.5667 49.2417 38 49.225C38.4333 49.2083 38.8 49.05 39.1 48.75C39.4 48.45 39.55 48.075 39.55 47.625C39.55 47.175 39.4 46.8 39.1 46.5L35.55 43ZM50.45 43L46.9 46.55C46.6 46.85 46.45 47.2167 46.45 47.65C46.45 48.0833 46.6 48.45 46.9 48.75C47.2 49.05 47.5667 49.2 48 49.2C48.4333 49.2 48.8 49.05 49.1 48.75L53.2 44.7C53.4303 44.461 53.6128 44.1912 53.7475 43.8905C53.8825 43.5895 53.95 43.2908 53.95 42.9945C53.95 42.6982 53.8825 42.4008 53.7475 42.1025C53.6128 41.8042 53.4303 41.5367 53.2 41.3L49.1 37.2C48.9667 37.0667 48.8 36.9583 48.6 36.875C48.4 36.7917 48.2042 36.75 48.0125 36.75C47.8208 36.75 47.6375 36.7917 47.4625 36.875C47.2875 36.9583 47.1167 37.0667 46.95 37.2C46.65 37.5 46.5 37.875 46.5 38.325C46.5 38.775 46.65 39.15 46.95 39.45L50.45 43ZM28.45 62.25C27.1483 62.25 26.0395 61.7922 25.1235 60.8765C24.2078 59.9605 23.75 58.8517 23.75 57.55V28.45C23.75 27.1347 24.2078 26.0142 25.1235 25.0885C26.0395 24.1628 27.1483 23.7 28.45 23.7H57.55C58.8653 23.7 59.9858 24.1628 60.9115 25.0885C61.8372 26.0142 62.3 27.1347 62.3 28.45V57.55C62.3 58.8517 61.8372 59.9605 60.9115 60.8765C59.9858 61.7922 58.8653 62.25 57.55 62.25H28.45Z"
      fill="white" />
  </g>
</svg>
  