<svg width="60" height="61" viewBox="0 0 60 61" fill="none" xmlns="http://www.w3.org/2000/svg">
  <path
    d="M54.0112 6.125H18.1968C17.9033 6.12475 17.6127 6.18232 17.3414 6.29441C17.0701 6.4065 16.8236 6.57093 16.6159 6.77829C16.4082 6.98566 16.2434 7.2319 16.1308 7.50297C16.0183 7.77404 15.9602 8.06462 15.96 8.35813V18.3125L36.7143 24.4062L56.25 18.3125V8.35813C56.2497 8.06446 56.1916 7.77373 56.0789 7.50254C55.9663 7.23135 55.8013 6.98502 55.5934 6.77763C55.3854 6.57024 55.1387 6.40586 54.8672 6.29387C54.5958 6.18189 54.3049 6.12451 54.0112 6.125Z"
    fill="#41A5EE" />
  <path d="M56.25 18.3125H15.96V30.5L36.7143 34.1563L56.25 30.5V18.3125Z" fill="#2B7CD3" />
  <path d="M15.96 30.5V42.6875L35.4937 45.125L56.25 42.6875V30.5H15.96Z" fill="#185ABD" />
  <path
    d="M18.1968 54.875H54.0093C54.3032 54.8757 54.5942 54.8185 54.8659 54.7067C55.1376 54.5948 55.3846 54.4305 55.5927 54.223C55.8008 54.0156 55.966 53.7692 56.0788 53.4979C56.1915 53.2266 56.2497 52.9357 56.25 52.6419V42.6875H15.96V52.6419C15.9602 52.9354 16.0183 53.226 16.1308 53.497C16.2434 53.7681 16.4082 54.0143 16.6159 54.2217C16.8236 54.4291 17.0701 54.5935 17.3414 54.7056C17.6127 54.8177 17.9033 54.8752 18.1968 54.875Z"
    fill="#103F91" />
  <path opacity="0.1"
    d="M30.8137 15.875H15.96V46.3438H30.8137C31.4056 46.3408 31.9725 46.1048 32.3915 45.6868C32.8106 45.2688 33.048 44.7025 33.0525 44.1106V18.1081C33.048 17.5163 32.8106 16.95 32.3915 16.532C31.9725 16.114 31.4056 15.8779 30.8137 15.875Z"
    fill="black" />
  <path opacity="0.2"
    d="M29.5931 17.0938H15.96V47.5625H29.5931C30.185 47.5596 30.7518 47.3235 31.1709 46.9055C31.5899 46.4875 31.8274 45.9212 31.8318 45.3294V19.3269C31.8274 18.735 31.5899 18.1687 31.1709 17.7507C30.7518 17.3327 30.185 17.0967 29.5931 17.0938Z"
    fill="black" />
  <path opacity="0.2"
    d="M29.5931 17.0938H15.96V45.125H29.5931C30.185 45.1221 30.7518 44.886 31.1709 44.468C31.5899 44.05 31.8274 43.4837 31.8318 42.8919V19.3269C31.8274 18.735 31.5899 18.1687 31.1709 17.7507C30.7518 17.3327 30.185 17.0967 29.5931 17.0938Z"
    fill="black" />
  <path opacity="0.2"
    d="M28.3725 17.0938H15.96V45.125H28.3725C28.9643 45.1221 29.5312 44.886 29.9503 44.468C30.3693 44.05 30.6068 43.4837 30.6112 42.8919V19.3269C30.6068 18.735 30.3693 18.1687 29.9503 17.7507C29.5312 17.3327 28.9643 17.0967 28.3725 17.0938Z"
    fill="black" />
  <path
    d="M5.98875 17.0938H28.3725C28.9654 17.0933 29.5343 17.3282 29.9541 17.7469C30.3739 18.1657 30.6103 18.7339 30.6113 19.3269V41.6731C30.6103 42.2661 30.3739 42.8343 29.9541 43.2531C29.5343 43.6718 28.9654 43.9067 28.3725 43.9063H5.98875C5.69509 43.9067 5.40421 43.8494 5.13273 43.7374C4.86126 43.6254 4.61452 43.461 4.4066 43.2536C4.19869 43.0462 4.03369 42.7999 3.92103 42.5287C3.80836 42.2575 3.75025 41.9668 3.75 41.6731V19.3269C3.75025 19.0332 3.80836 18.7425 3.92103 18.4713C4.03369 18.2001 4.19869 17.9538 4.4066 17.7464C4.61452 17.539 4.86126 17.3746 5.13273 17.2626C5.40421 17.1506 5.69509 17.0933 5.98875 17.0938Z"
    fill="url(#paint0_linear_26_4553)" />
  <path
    d="M12.9387 34.2274C12.9818 34.5724 13.0118 34.8724 13.0249 35.1292H13.0774C13.0962 34.8855 13.1374 34.5911 13.1993 34.248C13.2612 33.9049 13.3155 33.6142 13.3662 33.3761L15.7193 23.238H18.7643L21.2018 33.2242C21.3438 33.8419 21.4452 34.4683 21.5055 35.0992H21.5468C21.5916 34.485 21.6761 33.8744 21.7999 33.2711L23.748 23.2249H26.5174L23.0974 37.7524H19.8593L17.5399 28.1411C17.4724 27.8636 17.3962 27.5024 17.3112 27.0574C17.2262 26.6124 17.1737 26.2874 17.1537 26.0824H17.1143C17.088 26.3186 17.0355 26.6692 16.9568 27.1342C16.878 27.6011 16.8162 27.9442 16.7693 28.1692L14.5887 37.758H11.2962L7.85742 23.238H10.6699L12.7905 33.3967C12.8538 33.6709 12.9033 33.9482 12.9387 34.2274Z"
    fill="white" />
  <defs>
    <linearGradient id="paint0_linear_26_4553" x1="8.42625" y1="15.3388" x2="25.935" y2="45.6613"
      gradientUnits="userSpaceOnUse">
      <stop stop-color="#2368C4" />
      <stop offset="0.5" stop-color="#1A5DBE" />
      <stop offset="1" stop-color="#1146AC" />
    </linearGradient>
  </defs>
</svg>
  